{
  "accessors": [
    {
      "bufferView": 2,
      "componentType": 5126,
      "count": 6662,
      "max": [
        5.3496999740600586,
        14.865516662597656,
        4.8385782241821289
      ],
      "min": [
        -3.6873180866241455,
        10.970454216003418,
        -4.8843817710876465
      ],
      "type": "VEC3"
    },
    {
      "bufferView": 2,
      "byteOffset": 79944,
      "componentType": 5126,
      "count": 6662,
      "max": [
        0.99979931116104126,
        0.99999040365219116,
        0.99999809265136719
      ],
      "min": [
        -0.99978166818618774,
        -0.99950480461120605,
        -0.9999769926071167
      ],
      "type": "VEC3"
    },
    {
      "bufferView": 3,
      "componentType": 5126,
      "count": 6662,
      "max": [
        0.99995172023773193,
        0.99943184852600098,
        0.99957013130187988,
        1
      ],
      "min": [
        -0.99984174966812134,
        -0.99861204624176025,
        -0.99996095895767212,
        1
      ],
      "type": "VEC4"
    },
    {
      "bufferView": 3,
      "byteOffset": 106592,
      "componentType": 5126,
      "count": 6662,
      "max": [
        0.98823529481887817,
        0.99215686321258545,
        0.99607843160629272,
        1
      ],
      "min": [
        0.039215687662363052,
        0.039215687662363052,
        0.039215687662363052,
        1
      ],
      "type": "VEC4"
    },
    {
      "bufferView": 1,
      "componentType": 5126,
      "count": 6662,
      "max": [
        0.99999397993087769,
        0.99317902326583862
      ],
      "min": [
        0,
        6.6000000515487045e-05
      ],
      "type": "VEC2"
    },
    {
      "bufferView": 0,
      "componentType": 5125,
      "count": 29892,
      "max": [
        6661
      ],
      "min": [
        0
      ],
      "type": "SCALAR"
    }
  ],
  "asset": {
    "extras": {
      "author": "gunoghlu (https://sketchfab.com/gunoghlu)",
      "license": "CC-BY-4.0 (http://creativecommons.org/licenses/by/4.0/)",
      "source": "https://sketchfab.com/3d-models/purse-794260e00fa44910b073f89fbcab2885",
      "title": "purse"
    },
    "generator": "Sketchfab-6.47.0",
    "version": "2.0"
  },
  "bufferViews": [
    {
      "buffer": 0,
      "byteLength": 119568,
      "byteOffset": 0,
      "name": "floatBufferViews",
      "target": 34963
    },
    {
      "buffer": 0,
      "byteLength": 53296,
      "byteOffset": 119568,
      "byteStride": 8,
      "name": "floatBufferViews",
      "target": 34962
    },
    {
      "buffer": 0,
      "byteLength": 159888,
      "byteOffset": 172864,
      "byteStride": 12,
      "name": "floatBufferViews",
      "target": 34962
    },
    {
      "buffer": 0,
      "byteLength": 213184,
      "byteOffset": 332752,
      "byteStride": 16,
      "name": "floatBufferViews",
      "target": 34962
    }
  ],
  "buffers": [
    {
      "byteLength": 545936,
      "uri": "scene.bin"
    }
  ],
  "images": [
    {
      "uri": "textures/10k.1001_baseColor.jpeg"
    }
  ],
  "materials": [
    {
      "doubleSided": true,
      "emissiveFactor": [
        0,
        0,
        0
      ],
      "name": "10k.1001",
      "pbrMetallicRoughness": {
        "baseColorFactor": [
          1,
          1,
          1,
          1
        ],
        "baseColorTexture": {
          "index": 0,
          "texCoord": 0
        },
        "metallicFactor": 0,
        "roughnessFactor": 1
      }
    }
  ],
  "meshes": [
    {
      "primitives": [
        {
          "attributes": {
            "COLOR_0": 3,
            "NORMAL": 1,
            "POSITION": 0,
            "TANGENT": 2,
            "TEXCOORD_0": 4
          },
          "indices": 5,
          "material": 0,
          "mode": 4
        }
      ]
    }
  ],
  "nodes": [
    {
      "children": [
        1
      ],
      "name": "RootNode (gltf orientation matrix)",
      "rotation": [
        -0.70710678118654746,
        -0,
        -0,
        0.70710678118654757
      ]
    },
    {
      "children": [
        2
      ],
      "name": "RootNode (model correction matrix)"
    },
    {
      "children": [
        3
      ],
      "name": "10k.obj.cleaner.materialmerger.gles"
    },
    {
      "mesh": 0,
      "name": ""
    }
  ],
  "samplers": [
    {
      "magFilter": 9729,
      "minFilter": 9987,
      "wrapS": 10497,
      "wrapT": 10497
    }
  ],
  "scene": 0,
  "scenes": [
    {
      "name": "OSG_Scene",
      "nodes": [
        0
      ]
    }
  ],
  "textures": [
    {
      "sampler": 0,
      "source": 0
    }
  ]
}

