{"accessors" : [{"bufferView" : 0, "byteOffset" : 0, "componentType" : 5123, "count" : 4536, "type" : "SCALAR", "max" : [761], "min" : [0]}, {"bufferView" : 1, "byteOffset" : 0, "componentType" : 5126, "count" : 762, "type" : "VEC3", "max" : [0.0163475330919027, 0.359484225511551, 0.500298261642456], "min" : [-0.0163475330919027, -0.393838346004486, -0.434057772159576]}], "asset" : {"generator" : "Aspose.3D 20.2.1", "version" : "2.0"}, "buffers" : [{"uri" : "buffer.bin", "byteLength" : 18224}], "bufferViews" : [{"buffer" : 0, "byteOffset" : 0, "byteLength" : 9072, "target" : 34963}, {"buffer" : 0, "byteOffset" : 9076, "byteLength" : 9144, "byteStride" : 12, "target" : 34962}], "images" : [{"uri" : "textures\\144.png"}], "materials" : [{"pbrMetallicRoughness" : {"baseColorFactor" : [0.0549019612371922, 0.639215707778931, 0.0823529437184334, 1], "baseColorTexture" : {"index" : 0, "texCoord" : 0}, "metallicFactor" : 0, "roughnessFactor" : 0.975878834724426}, "emissiveFactor" : [0, 0, 0], "alphaMode" : "OPAQUE", "doubleSided" : false}], "meshes" : [{"primitives" : [{"attributes" : {"POSITION" : 1}, "indices" : 0, "material" : 0, "mode" : 4}]}], "nodes" : [{"matrix" : [-0.233906656503677, 0.165617391467094, -0.467044591903687, 0, -0.494483709335327, -0.1117098107934, 0.208035677671433, 0, -0.0323359109461308, 0.510258734226227, 0.197135984897614, 0, -0.0074223168194294, -0.0188187342137098, 0.253043293952942, 1], "mesh" : 0, "name" : "node_id4"}, {"children" : [0], "name" : "root"}, {"children" : [1], "name" : "RootNode"}], "samplers" : [{"magFilter" : 9728, "minFilter" : 9728, "wrapS" : 10497, "wrapT" : 10497}], "scene" : 0, "scenes" : [{"nodes" : [2]}], "textures" : [{"sampler" : 0, "source" : 0}]}