{
  "accessors": [
    {
      "bufferView": 2,
      "componentType": 5126,
      "count": 260,
      "max": [
        4.4967598915100098,
        -0.92656999826431274,
        1
      ],
      "min": [
        -4.4559798240661621,
        -1,
        -0.031509999185800552
      ],
      "type": "VEC3"
    },
    {
      "bufferView": 2,
      "byteOffset": 3120,
      "componentType": 5126,
      "count": 260,
      "max": [
        0.98078745603561401,
        -0.18183065950870514,
        0.9807855486869812
      ],
      "min": [
        -0.98078745603561401,
        -1,
        -0.9807855486869812
      ],
      "type": "VEC3"
    },
    {
      "bufferView": 1,
      "componentType": 5126,
      "count": 260,
      "max": [
        0.94670999050140381,
        0.85266000032424927
      ],
      "min": [
        0.056000001728534698,
        0.72822999954223633
      ],
      "type": "VEC2"
    },
    {
      "bufferView": 0,
      "componentType": 5125,
      "count": 390,
      "max": [
        259
      ],
      "min": [
        0
      ],
      "type": "SCALAR"
    },
    {
      "bufferView": 2,
      "byteOffset": 6240,
      "componentType": 5126,
      "count": 340,
      "max": [
        4.4967598915100098,
        8.9950799942016602,
        1
      ],
      "min": [
        -4.4559798240661621,
        -0.92656999826431274,
        -0.031509999185800552
      ],
      "type": "VEC3"
    },
    {
      "bufferView": 2,
      "byteOffset": 10320,
      "componentType": 5126,
      "count": 340,
      "max": [
        1,
        1,
        1
      ],
      "min": [
        -1,
        -0,
        -1
      ],
      "type": "VEC3"
    },
    {
      "bufferView": 1,
      "byteOffset": 2080,
      "componentType": 5126,
      "count": 340,
      "max": [
        0,
        0
      ],
      "min": [
        0,
        0
      ],
      "type": "VEC2"
    },
    {
      "bufferView": 0,
      "byteOffset": 1560,
      "componentType": 5125,
      "count": 510,
      "max": [
        339
      ],
      "min": [
        0
      ],
      "type": "SCALAR"
    },
    {
      "bufferView": 2,
      "byteOffset": 14400,
      "componentType": 5126,
      "count": 1088,
      "max": [
        1.3080500364303589,
        0.0020399999339133501,
        0.37727999687194824
      ],
      "min": [
        -1.393339991569519,
        -0.48616001009941101,
        -0.3574100136756897
      ],
      "type": "VEC3"
    },
    {
      "bufferView": 2,
      "byteOffset": 27456,
      "componentType": 5126,
      "count": 1088,
      "max": [
        0.99519908428192139,
        0.68571722507476807,
        0.99519908428192139
      ],
      "min": [
        -0.99519908428192139,
        -0.99462348222732544,
        -0.99519908428192139
      ],
      "type": "VEC3"
    },
    {
      "bufferView": 0,
      "byteOffset": 3600,
      "componentType": 5125,
      "count": 6294,
      "max": [
        1087
      ],
      "min": [
        0
      ],
      "type": "SCALAR"
    },
    {
      "bufferView": 2,
      "byteOffset": 40512,
      "componentType": 5126,
      "count": 152,
      "max": [
        1,
        -0.0029200001154094934,
        1
      ],
      "min": [
        -1,
        -0.3568899929523468,
        -1
      ],
      "type": "VEC3"
    },
    {
      "bufferView": 2,
      "byteOffset": 42336,
      "componentType": 5126,
      "count": 152,
      "max": [
        0.9898725152015686,
        0.9898725152015686,
        0.98987263441085815
      ],
      "min": [
        -0.9898725152015686,
        -0.9898725152015686,
        -0.98987263441085815
      ],
      "type": "VEC3"
    },
    {
      "bufferView": 0,
      "byteOffset": 28776,
      "componentType": 5125,
      "count": 900,
      "max": [
        151
      ],
      "min": [
        0
      ],
      "type": "SCALAR"
    },
    {
      "bufferView": 2,
      "byteOffset": 44160,
      "componentType": 5126,
      "count": 260,
      "max": [
        0.87453997135162354,
        0.33427000045776367,
        0.34845998883247375
      ],
      "min": [
        -0.8621399998664856,
        0.27726000547409058,
        -0.34995999932289124
      ],
      "type": "VEC3"
    },
    {
      "bufferView": 2,
      "byteOffset": 47280,
      "componentType": 5126,
      "count": 260,
      "max": [
        0.9807855486869812,
        -0.18183065950870514,
        0.9807855486869812
      ],
      "min": [
        -0.9807855486869812,
        -1,
        -0.9807855486869812
      ],
      "type": "VEC3"
    },
    {
      "bufferView": 1,
      "byteOffset": 4800,
      "componentType": 5126,
      "count": 260,
      "max": [
        0.26227998733520508,
        0.82295000553131104
      ],
      "min": [
        0.093410000205039978,
        0.74156999588012695
      ],
      "type": "VEC2"
    },
    {
      "bufferView": 0,
      "byteOffset": 32376,
      "componentType": 5125,
      "count": 390,
      "max": [
        259
      ],
      "min": [
        0
      ],
      "type": "SCALAR"
    },
    {
      "bufferView": 2,
      "byteOffset": 50400,
      "componentType": 5126,
      "count": 834,
      "max": [
        4.5810699462890625,
        0.47181001305580139,
        2.5006599426269531
      ],
      "min": [
        -4.3294000625610352,
        -0.10095000267028809,
        -2.7811300754547119
      ],
      "type": "VEC3"
    },
    {
      "bufferView": 2,
      "byteOffset": 60408,
      "componentType": 5126,
      "count": 834,
      "max": [
        1,
        1,
        1
      ],
      "min": [
        -1,
        -1,
        -1
      ],
      "type": "VEC3"
    },
    {
      "bufferView": 1,
      "byteOffset": 6880,
      "componentType": 5126,
      "count": 834,
      "max": [
        0,
        0
      ],
      "min": [
        0,
        0
      ],
      "type": "VEC2"
    },
    {
      "bufferView": 0,
      "byteOffset": 33936,
      "componentType": 5125,
      "count": 1518,
      "max": [
        833
      ],
      "min": [
        0
      ],
      "type": "SCALAR"
    },
    {
      "bufferView": 2,
      "byteOffset": 70416,
      "componentType": 5126,
      "count": 16,
      "max": [
        3.2742600440979004,
        0.38051998615264893,
        1.6302900314331055
      ],
      "min": [
        -3.2742600440979004,
        0,
        -1.6099499464035034
      ],
      "type": "VEC3"
    },
    {
      "bufferView": 2,
      "byteOffset": 70608,
      "componentType": 5126,
      "count": 16,
      "max": [
        0.73508018255233765,
        -0.65891093015670776,
        0.75222104787826538
      ],
      "min": [
        -0.73508977890014648,
        -0.67798018455505371,
        -0.75222104787826538
      ],
      "type": "VEC3"
    },
    {
      "bufferView": 1,
      "byteOffset": 13552,
      "componentType": 5126,
      "count": 16,
      "max": [
        0,
        0
      ],
      "min": [
        0,
        0
      ],
      "type": "VEC2"
    },
    {
      "bufferView": 0,
      "byteOffset": 40008,
      "componentType": 5125,
      "count": 24,
      "max": [
        15
      ],
      "min": [
        0
      ],
      "type": "SCALAR"
    },
    {
      "bufferView": 2,
      "byteOffset": 70800,
      "componentType": 5126,
      "count": 4,
      "max": [
        2.92330002784729,
        0.38051998615264893,
        1.2969800233840942
      ],
      "min": [
        -2.92330002784729,
        0.38051998615264893,
        -1.2766300439834595
      ],
      "type": "VEC3"
    },
    {
      "bufferView": 2,
      "byteOffset": 70848,
      "componentType": 5126,
      "count": 4,
      "max": [
        0,
        -1,
        -0
      ],
      "min": [
        0,
        -1,
        -0
      ],
      "type": "VEC3"
    },
    {
      "bufferView": 1,
      "byteOffset": 13680,
      "componentType": 5126,
      "count": 4,
      "max": [
        0.78341001272201538,
        0.57902002334594727
      ],
      "min": [
        0.19797000288963318,
        0.28305000066757202
      ],
      "type": "VEC2"
    },
    {
      "bufferView": 0,
      "byteOffset": 40104,
      "componentType": 5125,
      "count": 6,
      "max": [
        3
      ],
      "min": [
        0
      ],
      "type": "SCALAR"
    },
    {
      "bufferView": 2,
      "byteOffset": 70896,
      "componentType": 5126,
      "count": 260,
      "max": [
        0.87453997135162354,
        0.33427000045776367,
        0.34845998883247375
      ],
      "min": [
        -0.8621399998664856,
        0.27726000547409058,
        -0.34995999932289124
      ],
      "type": "VEC3"
    },
    {
      "bufferView": 2,
      "byteOffset": 74016,
      "componentType": 5126,
      "count": 260,
      "max": [
        0.9807855486869812,
        -0.18183065950870514,
        0.9807855486869812
      ],
      "min": [
        -0.9807855486869812,
        -1,
        -0.9807855486869812
      ],
      "type": "VEC3"
    },
    {
      "bufferView": 1,
      "byteOffset": 13712,
      "componentType": 5126,
      "count": 260,
      "max": [
        0.56856000423431396,
        0.18265999853610992
      ],
      "min": [
        0.44176998734474182,
        0.12912000715732574
      ],
      "type": "VEC2"
    },
    {
      "bufferView": 0,
      "byteOffset": 40128,
      "componentType": 5125,
      "count": 390,
      "max": [
        259
      ],
      "min": [
        0
      ],
      "type": "SCALAR"
    },
    {
      "bufferView": 2,
      "byteOffset": 77136,
      "componentType": 5126,
      "count": 340,
      "max": [
        4.1753997802734375,
        7.2498397827148438,
        0.18328000605106354
      ],
      "min": [
        -4.1753997802734375,
        -2.3143100738525391,
        -0.18328000605106354
      ],
      "type": "VEC3"
    },
    {
      "bufferView": 2,
      "byteOffset": 81216,
      "componentType": 5126,
      "count": 340,
      "max": [
        1,
        1,
        1
      ],
      "min": [
        -1,
        -0,
        -1
      ],
      "type": "VEC3"
    },
    {
      "bufferView": 1,
      "byteOffset": 15792,
      "componentType": 5126,
      "count": 340,
      "max": [
        0,
        0
      ],
      "min": [
        0,
        0
      ],
      "type": "VEC2"
    },
    {
      "bufferView": 0,
      "byteOffset": 41688,
      "componentType": 5125,
      "count": 510,
      "max": [
        339
      ],
      "min": [
        0
      ],
      "type": "SCALAR"
    },
    {
      "bufferView": 2,
      "byteOffset": 85296,
      "componentType": 5126,
      "count": 260,
      "max": [
        4.1753997802734375,
        -2.3143100738525391,
        0.18328000605106354
      ],
      "min": [
        -4.1753997802734375,
        -2.3877298831939697,
        -0.18328000605106354
      ],
      "type": "VEC3"
    },
    {
      "bufferView": 2,
      "byteOffset": 88416,
      "componentType": 5126,
      "count": 260,
      "max": [
        0.98322069644927979,
        -0.070510074496269226,
        0.99751108884811401
      ],
      "min": [
        -0.98322069644927979,
        -1,
        -0.99751108884811401
      ],
      "type": "VEC3"
    },
    {
      "bufferView": 1,
      "byteOffset": 18512,
      "componentType": 5126,
      "count": 260,
      "max": [
        0.92052000761032104,
        0.085170000791549683
      ],
      "min": [
        0.091600000858306885,
        0.043269999325275421
      ],
      "type": "VEC2"
    },
    {
      "bufferView": 0,
      "byteOffset": 43728,
      "componentType": 5125,
      "count": 390,
      "max": [
        259
      ],
      "min": [
        0
      ],
      "type": "SCALAR"
    },
    {
      "bufferView": 2,
      "byteOffset": 91536,
      "componentType": 5126,
      "count": 600,
      "max": [
        4.4967598915100098,
        8.9950799942016602,
        1
      ],
      "min": [
        -4.4559798240661621,
        -0.41595000028610229,
        -4.292140007019043
      ],
      "type": "VEC3"
    },
    {
      "bufferView": 2,
      "byteOffset": 98736,
      "componentType": 5126,
      "count": 600,
      "max": [
        1,
        1,
        1
      ],
      "min": [
        -1,
        -1,
        -1
      ],
      "type": "VEC3"
    },
    {
      "bufferView": 1,
      "byteOffset": 20592,
      "componentType": 5126,
      "count": 600,
      "max": [
        0.94670999050140381,
        0.85266000032424927
      ],
      "min": [
        0,
        0
      ],
      "type": "VEC2"
    },
    {
      "bufferView": 0,
      "byteOffset": 45288,
      "componentType": 5125,
      "count": 900,
      "max": [
        599
      ],
      "min": [
        0
      ],
      "type": "SCALAR"
    },
    {
      "bufferView": 2,
      "byteOffset": 105936,
      "componentType": 5126,
      "count": 384,
      "max": [
        0.31499001383781433,
        0.04960000142455101,
        1.6133899688720703
      ],
      "min": [
        -0.31499001383781433,
        -0.70384001731872559,
        -1.6133899688720703
      ],
      "type": "VEC3"
    },
    {
      "bufferView": 2,
      "byteOffset": 110544,
      "componentType": 5126,
      "count": 384,
      "max": [
        1,
        1,
        1
      ],
      "min": [
        -1,
        -1,
        -1
      ],
      "type": "VEC3"
    },
    {
      "bufferView": 0,
      "byteOffset": 48888,
      "componentType": 5125,
      "count": 1668,
      "max": [
        383
      ],
      "min": [
        0
      ],
      "type": "SCALAR"
    }
  ],
  "asset": {
    "extras": {
      "author": "Tibor Meyer (https://sketchfab.com/jahnckesmesseservice)",
      "license": "CC-BY-4.0 (http://creativecommons.org/licenses/by/4.0/)",
      "source": "https://sketchfab.com/3d-models/panasonic-mikrowelle-ne-1843-59d7aa3e1c4740029d47dc0bcd838444",
      "title": "Panasonic Mikrowelle NE 1843"
    },
    "generator": "Sketchfab-8.37.0",
    "version": "2.0"
  },
  "bufferViews": [
    {
      "buffer": 0,
      "byteLength": 55560,
      "byteOffset": 0,
      "name": "floatBufferViews",
      "target": 34963
    },
    {
      "buffer": 0,
      "byteLength": 25392,
      "byteOffset": 55560,
      "byteStride": 8,
      "name": "floatBufferViews",
      "target": 34962
    },
    {
      "buffer": 0,
      "byteLength": 115152,
      "byteOffset": 80952,
      "byteStride": 12,
      "name": "floatBufferViews",
      "target": 34962
    }
  ],
  "buffers": [
    {
      "byteLength": 196104,
      "uri": "scene.bin"
    }
  ],
  "images": [
    {
      "uri": "textures/TMikrowelle_baseColor.jpeg"
    }
  ],
  "materials": [
    {
      "doubleSided": true,
      "name": "MSilber",
      "pbrMetallicRoughness": {
        "baseColorFactor": [
          0.38642943378704903,
          0.37626212299090633,
          0.39157247774972309,
          1
        ],
        "metallicFactor": 0.95021706218193103,
        "roughnessFactor": 0.12331351196882087
      }
    },
    {
      "doubleSided": true,
      "name": "MGrau",
      "pbrMetallicRoughness": {
        "baseColorFactor": [
          0.18116424424986022,
          0.20863687014525575,
          0.25015828472995333,
          1
        ],
        "metallicFactor": 1,
        "roughnessFactor": 1
      }
    },
    {
      "doubleSided": true,
      "name": "TMikrowelle",
      "pbrMetallicRoughness": {
        "baseColorFactor": [
          1,
          1,
          1,
          1
        ],
        "baseColorTexture": {
          "index": 0,
          "texCoord": 0
        },
        "metallicFactor": 0.8772549842219507,
        "roughnessFactor": 0.092912646152162423
      }
    }
  ],
  "meshes": [
    {
      "name": "Top_0",
      "primitives": [
        {
          "attributes": {
            "NORMAL": 1,
            "POSITION": 0,
            "TEXCOORD_0": 2
          },
          "indices": 3,
          "material": 2,
          "mode": 4
        }
      ]
    },
    {
      "name": "Top_1",
      "primitives": [
        {
          "attributes": {
            "NORMAL": 5,
            "POSITION": 4,
            "TEXCOORD_0": 6
          },
          "indices": 7,
          "material": 0,
          "mode": 4
        }
      ]
    },
    {
      "name": "Knobs_0",
      "primitives": [
        {
          "attributes": {
            "NORMAL": 9,
            "POSITION": 8
          },
          "indices": 10,
          "material": 0,
          "mode": 4
        }
      ]
    },
    {
      "name": "Button_0",
      "primitives": [
        {
          "attributes": {
            "NORMAL": 12,
            "POSITION": 11
          },
          "indices": 13,
          "material": 0,
          "mode": 4
        }
      ]
    },
    {
      "name": "Clock_0",
      "primitives": [
        {
          "attributes": {
            "NORMAL": 15,
            "POSITION": 14,
            "TEXCOORD_0": 16
          },
          "indices": 17,
          "material": 2,
          "mode": 4
        }
      ]
    },
    {
      "name": "Front_0",
      "primitives": [
        {
          "attributes": {
            "NORMAL": 19,
            "POSITION": 18,
            "TEXCOORD_0": 20
          },
          "indices": 21,
          "material": 0,
          "mode": 4
        }
      ]
    },
    {
      "name": "Front_1",
      "primitives": [
        {
          "attributes": {
            "NORMAL": 23,
            "POSITION": 22,
            "TEXCOORD_0": 24
          },
          "indices": 25,
          "material": 1,
          "mode": 4
        }
      ]
    },
    {
      "name": "Front_2",
      "primitives": [
        {
          "attributes": {
            "NORMAL": 27,
            "POSITION": 26,
            "TEXCOORD_0": 28
          },
          "indices": 29,
          "material": 2,
          "mode": 4
        }
      ]
    },
    {
      "name": "Type_Label_0",
      "primitives": [
        {
          "attributes": {
            "NORMAL": 31,
            "POSITION": 30,
            "TEXCOORD_0": 32
          },
          "indices": 33,
          "material": 2,
          "mode": 4
        }
      ]
    },
    {
      "name": "Base_0",
      "primitives": [
        {
          "attributes": {
            "NORMAL": 35,
            "POSITION": 34,
            "TEXCOORD_0": 36
          },
          "indices": 37,
          "material": 1,
          "mode": 4
        }
      ]
    },
    {
      "name": "Base_1",
      "primitives": [
        {
          "attributes": {
            "NORMAL": 39,
            "POSITION": 38,
            "TEXCOORD_0": 40
          },
          "indices": 41,
          "material": 2,
          "mode": 4
        }
      ]
    },
    {
      "name": "Body_0",
      "primitives": [
        {
          "attributes": {
            "NORMAL": 43,
            "POSITION": 42,
            "TEXCOORD_0": 44
          },
          "indices": 45,
          "material": 0,
          "mode": 4
        }
      ]
    },
    {
      "name": "Handle_0",
      "primitives": [
        {
          "attributes": {
            "NORMAL": 47,
            "POSITION": 46
          },
          "indices": 48,
          "material": 0,
          "mode": 4
        }
      ]
    }
  ],
  "nodes": [
    {
      "children": [
        1
      ],
      "name": "RootNode (gltf orientation matrix)",
      "rotation": [
        -0.70710678118654746,
        -0,
        -0,
        0.70710678118654757
      ]
    },
    {
      "children": [
        2
      ],
      "name": "RootNode (model correction matrix)"
    },
    {
      "children": [
        3,
        5,
        8,
        10,
        12,
        14,
        18,
        20,
        23,
        25
      ],
      "name": "Root"
    },
    {
      "children": [
        4
      ],
      "matrix": [
        -0.29086000000000006,
        0.95517000000000007,
        -0.05519000000000001,
        0,
        -0.77110000000000001,
        -0.19988000000000003,
        0.60452000000000006,
        0,
        0.56639000000000006,
        0.21839000000000003,
        0.7946700000000001,
        0,
        -1.43451,
        -11.779400000000001,
        -0.41469,
        1
      ],
      "name": "Lamp"
    },
    {
      "name": "Lamp"
    },
    {
      "children": [
        6,
        7
      ],
      "matrix": [
        1,
        0,
        0,
        0,
        0,
        1,
        0,
        0,
        0,
        0,
        1,
        0,
        0,
        0,
        1.9165899999999998,
        1
      ],
      "name": "Top"
    },
    {
      "mesh": 0,
      "name": "Top_0"
    },
    {
      "mesh": 1,
      "name": "Top_1"
    },
    {
      "children": [
        9
      ],
      "matrix": [
        1,
        0,
        0,
        0,
        0,
        1,
        0,
        0,
        0,
        0,
        1,
        0,
        1.81884,
        -1,
        2.3462099999999997,
        1
      ],
      "name": "Knobs"
    },
    {
      "mesh": 2,
      "name": "Knobs_0"
    },
    {
      "children": [
        11
      ],
      "matrix": [
        0.34687000000000012,
        0,
        0,
        0,
        0,
        0.34687000000000012,
        0,
        0,
        0,
        0,
        0.34687000000000012,
        0,
        3.7821500000000001,
        -1,
        2.3509699999999998,
        1
      ],
      "name": "Button"
    },
    {
      "mesh": 3,
      "name": "Button_0"
    },
    {
      "children": [
        13
      ],
      "matrix": [
        1,
        0,
        0,
        0,
        0,
        1,
        0,
        0,
        0,
        0,
        1,
        0,
        -3.2274000000000003,
        -1.3354599999999999,
        2.3365099999999996,
        1
      ],
      "name": "Clock"
    },
    {
      "mesh": 4,
      "name": "Clock_0"
    },
    {
      "children": [
        15,
        16,
        17
      ],
      "matrix": [
        1.0021100000000001,
        0,
        0,
        0,
        0,
        1.0021100000000001,
        0,
        0,
        0,
        0,
        1.0021100000000001,
        0,
        -0.092800000000000021,
        -0.89642000000000011,
        -0.66653000000000007,
        1
      ],
      "name": "Front"
    },
    {
      "mesh": 5,
      "name": "Front_0"
    },
    {
      "mesh": 6,
      "name": "Front_1"
    },
    {
      "mesh": 7,
      "name": "Front_2"
    },
    {
      "children": [
        19
      ],
      "matrix": [
        0.7392200000000001,
        0,
        0,
        0,
        0,
        0.70487000000000011,
        0,
        0,
        0,
        0,
        0.64867000000000019,
        0,
        0.03851000000000001,
        -1.2352899999999998,
        -2.8786599999999996,
        1
      ],
      "name": "Type_Label"
    },
    {
      "mesh": 8,
      "name": "Type_Label_0"
    },
    {
      "children": [
        21,
        22
      ],
      "matrix": [
        1,
        0,
        0,
        0,
        0,
        1,
        0,
        0,
        0,
        0,
        1,
        0,
        0.05152000000000001,
        1.7440400000000003,
        -3.6409000000000002,
        1
      ],
      "name": "Base"
    },
    {
      "mesh": 9,
      "name": "Base_0"
    },
    {
      "mesh": 10,
      "name": "Base_1"
    },
    {
      "children": [
        24
      ],
      "matrix": [
        1,
        0,
        0,
        0,
        0,
        1,
        0,
        0,
        0,
        0,
        1,
        0,
        0,
        0,
        0.83782000000000012,
        1
      ],
      "name": "Body"
    },
    {
      "mesh": 11,
      "name": "Body_0"
    },
    {
      "children": [
        26
      ],
      "matrix": [
        1,
        0,
        0,
        0,
        0,
        1,
        0,
        0,
        0,
        0,
        1,
        0,
        3.5858499999999998,
        -0.94811000000000001,
        -0.67652000000000012,
        1
      ],
      "name": "Handle"
    },
    {
      "mesh": 12,
      "name": "Handle_0"
    }
  ],
  "samplers": [
    {
      "magFilter": 9729,
      "minFilter": 9987,
      "wrapS": 10497,
      "wrapT": 10497
    }
  ],
  "scene": 0,
  "scenes": [
    {
      "name": "OSG_Scene",
      "nodes": [
        0
      ]
    }
  ],
  "textures": [
    {
      "sampler": 0,
      "source": 0
    }
  ]
}

