{
  "accessors": [
    {
      "bufferView": 2,
      "componentType": 5126,
      "count": 18879,
      "max": [
        0.058848999440670013,
        -0.26710200309753418,
        0.13956999778747559
      ],
      "min": [
        -0.049904000014066696,
        -0.38994100689888,
        -0.15361200273036957
      ],
      "type": "VEC3"
    },
    {
      "bufferView": 2,
      "byteOffset": 226548,
      "componentType": 5126,
      "count": 18879,
      "max": [
        0.99999713897705078,
        0.99999397993087769,
        0.9998708963394165
      ],
      "min": [
        -0.99997955560684204,
        -0.99996846914291382,
        -0.99976086616516113
      ],
      "type": "VEC3"
    },
    {
      "bufferView": 3,
      "componentType": 5126,
      "count": 18879,
      "max": [
        0.9999997615814209,
        0.99999994039535522,
        1,
        1
      ],
      "min": [
        -1,
        -0.99999713897705078,
        -1,
        -1
      ],
      "type": "VEC4"
    },
    {
      "bufferView": 1,
      "componentType": 5126,
      "count": 18879,
      "max": [
        0.99500000476837158,
        0.94315797090530396
      ],
      "min": [
        0.004999999888241291,
        0.004999999888241291
      ],
      "type": "VEC2"
    },
    {
      "bufferView": 0,
      "componentType": 5125,
      "count": 89988,
      "max": [
        18878
      ],
      "min": [
        0
      ],
      "type": "SCALAR"
    }
  ],
  "asset": {
    "extras": {
      "author": "grafi (https://sketchfab.com/zdenkoroman)",
      "license": "CC-BY-4.0 (http://creativecommons.org/licenses/by/4.0/)",
      "source": "https://sketchfab.com/3d-models/puma-basket-shoe-sneakers-3d-scan-4b64236e1acc470d9d5df72a40867e3b",
      "title": "Puma Basket Shoe Sneakers 3D Scan"
    },
    "generator": "Sketchfab-8.25.0",
    "version": "2.0"
  },
  "bufferViews": [
    {
      "buffer": 0,
      "byteLength": 359952,
      "byteOffset": 0,
      "name": "floatBufferViews",
      "target": 34963
    },
    {
      "buffer": 0,
      "byteLength": 151032,
      "byteOffset": 359952,
      "byteStride": 8,
      "name": "floatBufferViews",
      "target": 34962
    },
    {
      "buffer": 0,
      "byteLength": 453096,
      "byteOffset": 510984,
      "byteStride": 12,
      "name": "floatBufferViews",
      "target": 34962
    },
    {
      "buffer": 0,
      "byteLength": 302064,
      "byteOffset": 964080,
      "byteStride": 16,
      "name": "floatBufferViews",
      "target": 34962
    }
  ],
  "buffers": [
    {
      "byteLength": 1266144,
      "uri": "scene.bin"
    }
  ],
  "images": [
    {
      "uri": "textures/puma_low_baseColor.jpeg"
    },
    {
      "uri": "textures/puma_low_metallicRoughness.png"
    },
    {
      "uri": "textures/puma_low_normal.jpeg"
    }
  ],
  "materials": [
    {
      "doubleSided": true,
      "name": "puma_low",
      "normalTexture": {
        "index": 2,
        "scale": 1,
        "texCoord": 0
      },
      "occlusionTexture": {
        "index": 1,
        "strength": 1,
        "texCoord": 0
      },
      "pbrMetallicRoughness": {
        "baseColorFactor": [
          1,
          1,
          1,
          1
        ],
        "baseColorTexture": {
          "index": 0,
          "texCoord": 0
        },
        "metallicFactor": 1,
        "metallicRoughnessTexture": {
          "index": 1,
          "texCoord": 0
        },
        "roughnessFactor": 1
      }
    }
  ],
  "meshes": [
    {
      "primitives": [
        {
          "attributes": {
            "NORMAL": 1,
            "POSITION": 0,
            "TANGENT": 2,
            "TEXCOORD_0": 3
          },
          "indices": 4,
          "material": 0,
          "mode": 4
        }
      ]
    }
  ],
  "nodes": [
    {
      "children": [
        1
      ],
      "name": "RootNode (gltf orientation matrix)",
      "rotation": [
        -0.70710678118654746,
        -0,
        -0,
        0.70710678118654757
      ]
    },
    {
      "children": [
        2
      ],
      "matrix": [
        -1,
        -1.6081226229577292e-16,
        2.2204460492503131e-16,
        0,
        -2.2204460492503131e-16,
        4.4408920985006262e-16,
        -1,
        0,
        1.6081226229577292e-16,
        -1,
        -2.2204460492503131e-16,
        0,
        0.0089450143277645111,
        -0.3355427086353302,
        -0.3355427086353302,
        1
      ],
      "name": "RootNode (model correction matrix)"
    },
    {
      "children": [
        3
      ],
      "name": "puma_low.obj.cleaner.materialmerger.gles"
    },
    {
      "mesh": 0,
      "name": ""
    }
  ],
  "samplers": [
    {
      "magFilter": 9729,
      "minFilter": 9987,
      "wrapS": 10497,
      "wrapT": 10497
    }
  ],
  "scene": 0,
  "scenes": [
    {
      "name": "OSG_Scene",
      "nodes": [
        0
      ]
    }
  ],
  "textures": [
    {
      "sampler": 0,
      "source": 0
    },
    {
      "sampler": 0,
      "source": 1
    },
    {
      "sampler": 0,
      "source": 2
    }
  ]
}

