{
  "accessors": [
    {
      "bufferView": 2,
      "componentType": 5126,
      "count": 22045,
      "max": [
        0.076333999633789062,
        0.099115997552871704,
        1.5607240200042725
      ],
      "min": [
        -0.073928996920585632,
        -0.031629998236894608,
        1.4864660501480103
      ],
      "type": "VEC3"
    },
    {
      "bufferView": 2,
      "byteOffset": 264540,
      "componentType": 5126,
      "count": 22045,
      "max": [
        0.99998033046722412,
        0.99985146522521973,
        0.99941706657409668
      ],
      "min": [
        -0.99995684623718262,
        -0.99998879432678223,
        -0.99943864345550537
      ],
      "type": "VEC3"
    },
    {
      "bufferView": 3,
      "componentType": 5126,
      "count": 22045,
      "max": [
        0.999858558177948,
        0.99933373928070068,
        0.99999940395355225,
        1
      ],
      "min": [
        -0.99998873472213745,
        -0.99988734722137451,
        -0.99999946355819702,
        -1
      ],
      "type": "VEC4"
    },
    {
      "bufferView": 1,
      "componentType": 5126,
      "count": 22045,
      "max": [
        0.99257999658584595,
        0.97622001171112061
      ],
      "min": [
        0.0055900001898407936,
        0.031433999538421631
      ],
      "type": "VEC2"
    },
    {
      "bufferView": 0,
      "componentType": 5125,
      "count": 105480,
      "max": [
        22044
      ],
      "min": [
        0
      ],
      "type": "SCALAR"
    }
  ],
  "asset": {
    "extras": {
      "author": "Heledahn (https://sketchfab.com/heledahn)",
      "license": "CC-BY-4.0 (http://creativecommons.org/licenses/by/4.0/)",
      "source": "https://sketchfab.com/3d-models/native-american-style-necklace-9548eb99c613484fb2cad518899e6821",
      "title": "Native American Style Necklace"
    },
    "generator": "Sketchfab-8.37.0",
    "version": "2.0"
  },
  "bufferViews": [
    {
      "buffer": 0,
      "byteLength": 421920,
      "byteOffset": 0,
      "name": "floatBufferViews",
      "target": 34963
    },
    {
      "buffer": 0,
      "byteLength": 176360,
      "byteOffset": 421920,
      "byteStride": 8,
      "name": "floatBufferViews",
      "target": 34962
    },
    {
      "buffer": 0,
      "byteLength": 529080,
      "byteOffset": 598280,
      "byteStride": 12,
      "name": "floatBufferViews",
      "target": 34962
    },
    {
      "buffer": 0,
      "byteLength": 352720,
      "byteOffset": 1127360,
      "byteStride": 16,
      "name": "floatBufferViews",
      "target": 34962
    }
  ],
  "buffers": [
    {
      "byteLength": 1480080,
      "uri": "scene.bin"
    }
  ],
  "images": [
    {
      "uri": "textures/SMS_Native_Necklace_Material_baseColor.png"
    },
    {
      "uri": "textures/SMS_Native_Necklace_Material_metallicRoughness.png"
    },
    {
      "uri": "textures/SMS_Native_Necklace_Material_normal.png"
    }
  ],
  "materials": [
    {
      "doubleSided": true,
      "name": "SMS_Native_Necklace_Material",
      "normalTexture": {
        "index": 2,
        "scale": 1,
        "texCoord": 0
      },
      "pbrMetallicRoughness": {
        "baseColorFactor": [
          1,
          1,
          1,
          1
        ],
        "baseColorTexture": {
          "index": 0,
          "texCoord": 0
        },
        "metallicFactor": 1,
        "metallicRoughnessTexture": {
          "index": 1,
          "texCoord": 0
        },
        "roughnessFactor": 1
      }
    }
  ],
  "meshes": [
    {
      "primitives": [
        {
          "attributes": {
            "NORMAL": 1,
            "POSITION": 0,
            "TANGENT": 2,
            "TEXCOORD_0": 3
          },
          "indices": 4,
          "material": 0,
          "mode": 4
        }
      ]
    }
  ],
  "nodes": [
    {
      "children": [
        1
      ],
      "name": "RootNode (gltf orientation matrix)",
      "rotation": [
        -0.70710678118654746,
        -0,
        -0,
        0.70710678118654757
      ]
    },
    {
      "children": [
        2
      ],
      "name": "RootNode (model correction matrix)"
    },
    {
      "children": [
        3
      ],
      "name": "SMS Native Necklace.obj.cleaner.materialmerger.gles"
    },
    {
      "mesh": 0,
      "name": ""
    }
  ],
  "samplers": [
    {
      "magFilter": 9729,
      "minFilter": 9987,
      "wrapS": 10497,
      "wrapT": 10497
    }
  ],
  "scene": 0,
  "scenes": [
    {
      "name": "OSG_Scene",
      "nodes": [
        0
      ]
    }
  ],
  "textures": [
    {
      "sampler": 0,
      "source": 0
    },
    {
      "sampler": 0,
      "source": 1
    },
    {
      "sampler": 0,
      "source": 2
    }
  ]
}

