{
  "accessors": [
    {
      "bufferView": 2,
      "componentType": 5126,
      "count": 4203,
      "max": [
        1.000341534614563,
        0.99757689237594604,
        1.0003416538238525
      ],
      "min": [
        -1.000341534614563,
        -0.99757689237594604,
        -1.000341534614563
      ],
      "type": "VEC3"
    },
    {
      "bufferView": 2,
      "byteOffset": 50436,
      "componentType": 5126,
      "count": 4203,
      "max": [
        0.99996483325958252,
        1,
        0.99996483325958252
      ],
      "min": [
        -0.99996483325958252,
        -1,
        -0.99996483325958252
      ],
      "type": "VEC3"
    },
    {
      "bufferView": 1,
      "componentType": 5126,
      "count": 4203,
      "max": [
        0.97086238861083984,
        0.73868674039840698
      ],
      "min": [
        0.031114900484681129,
        0.0035260741133242846
      ],
      "type": "VEC2"
    },
    {
      "bufferView": 0,
      "componentType": 5125,
      "count": 19584,
      "max": [
        4202
      ],
      "min": [
        0
      ],
      "type": "SCALAR"
    },
    {
      "bufferView": 2,
      "byteOffset": 100872,
      "componentType": 5126,
      "count": 65532,
      "max": [
        0.036093730479478836,
        0.4883161187171936,
        1.0013039112091064
      ],
      "min": [
        -1.9617652893066406,
        -0.077328070998191833,
        -0.99593514204025269
      ],
      "type": "VEC3"
    },
    {
      "bufferView": 2,
      "byteOffset": 887256,
      "componentType": 5126,
      "count": 65532,
      "max": [
        0.99948358535766602,
        0.99968910217285156,
        0.99935126304626465
      ],
      "min": [
        -0.99973654747009277,
        -0.99968910217285156,
        -0.9997328519821167
      ],
      "type": "VEC3"
    },
    {
      "bufferView": 1,
      "byteOffset": 33624,
      "componentType": 5126,
      "count": 65532,
      "max": [
        0.99985378980636597,
        0.82737147808074951
      ],
      "min": [
        0.00014627250493504107,
        0.0060660052113234997
      ],
      "type": "VEC2"
    },
    {
      "bufferView": 0,
      "byteOffset": 78336,
      "componentType": 5125,
      "count": 282648,
      "max": [
        65531
      ],
      "min": [
        0
      ],
      "type": "SCALAR"
    },
    {
      "bufferView": 2,
      "byteOffset": 1673640,
      "componentType": 5126,
      "count": 19541,
      "max": [
        0.029253194108605385,
        0.48831793665885925,
        -0.026664452627301216
      ],
      "min": [
        -1.9472343921661377,
        0.25648507475852966,
        -0.99593514204025269
      ],
      "type": "VEC3"
    },
    {
      "bufferView": 2,
      "byteOffset": 1908132,
      "componentType": 5126,
      "count": 19541,
      "max": [
        0.99700963497161865,
        0.99724769592285156,
        0.99917745590209961
      ],
      "min": [
        -0.99973654747009277,
        -0.99968898296356201,
        -0.99904161691665649
      ],
      "type": "VEC3"
    },
    {
      "bufferView": 1,
      "byteOffset": 557880,
      "componentType": 5126,
      "count": 19541,
      "max": [
        0.99985378980636597,
        0.82737147808074951
      ],
      "min": [
        0.00014627250493504107,
        0.0060660052113234997
      ],
      "type": "VEC2"
    },
    {
      "bufferView": 0,
      "byteOffset": 1208928,
      "componentType": 5125,
      "count": 85272,
      "max": [
        19540
      ],
      "min": [
        0
      ],
      "type": "SCALAR"
    }
  ],
  "asset": {
    "extras": {
      "author": "rohit8999 (https://sketchfab.com/rohit8999)",
      "license": "CC-BY-4.0 (http://creativecommons.org/licenses/by/4.0/)",
      "source": "https://sketchfab.com/3d-models/cricket-ball-sports-b13a0d69d6ca48d4b125de2cc2e7f940",
      "title": "Cricket Ball (Sports)."
    },
    "generator": "Sketchfab-8.39.0",
    "version": "2.0"
  },
  "bufferViews": [
    {
      "buffer": 0,
      "byteLength": 1550016,
      "byteOffset": 0,
      "name": "floatBufferViews",
      "target": 34963
    },
    {
      "buffer": 0,
      "byteLength": 714208,
      "byteOffset": 1550016,
      "byteStride": 8,
      "name": "floatBufferViews",
      "target": 34962
    },
    {
      "buffer": 0,
      "byteLength": 2142624,
      "byteOffset": 2264224,
      "byteStride": 12,
      "name": "floatBufferViews",
      "target": 34962
    }
  ],
  "buffers": [
    {
      "byteLength": 4406848,
      "uri": "scene.bin"
    }
  ],
  "images": [
    {
      "uri": "textures/Material.004_baseColor.jpeg"
    }
  ],
  "materials": [
    {
      "doubleSided": true,
      "emissiveFactor": [
        0,
        0,
        0
      ],
      "name": "Material.004",
      "pbrMetallicRoughness": {
        "baseColorFactor": [
          1,
          1,
          1,
          1
        ],
        "baseColorTexture": {
          "index": 0,
          "texCoord": 0
        },
        "metallicFactor": 0,
        "roughnessFactor": 1
      }
    },
    {
      "doubleSided": true,
      "emissiveFactor": [
        0,
        0,
        0
      ],
      "name": "Material.002",
      "pbrMetallicRoughness": {
        "baseColorFactor": [
          1,
          0.79579599999999995,
          0.48459999999999998,
          1
        ],
        "metallicFactor": 0,
        "roughnessFactor": 1
      }
    }
  ],
  "meshes": [
    {
      "name": "Sphere_Material.004_0",
      "primitives": [
        {
          "attributes": {
            "NORMAL": 1,
            "POSITION": 0,
            "TEXCOORD_0": 2
          },
          "indices": 3,
          "material": 0,
          "mode": 4
        }
      ]
    },
    {
      "name": "Cylinder.002_Material.002_0",
      "primitives": [
        {
          "attributes": {
            "NORMAL": 5,
            "POSITION": 4,
            "TEXCOORD_0": 6
          },
          "indices": 7,
          "material": 1,
          "mode": 4
        }
      ]
    },
    {
      "name": "Cylinder.002_Material.002_0",
      "primitives": [
        {
          "attributes": {
            "NORMAL": 9,
            "POSITION": 8,
            "TEXCOORD_0": 10
          },
          "indices": 11,
          "material": 1,
          "mode": 4
        }
      ]
    }
  ],
  "nodes": [
    {
      "children": [
        1
      ],
      "name": "RootNode (gltf orientation matrix)",
      "rotation": [
        -0.70710678118654746,
        -0,
        -0,
        0.70710678118654757
      ]
    },
    {
      "children": [
        2
      ],
      "matrix": [
        0.0029957159422338009,
        0,
        0,
        0,
        0,
        0.0029957159422338009,
        0,
        0,
        0,
        0,
        0.0029957159422338009,
        0,
        0,
        0,
        0,
        1
      ],
      "name": "RootNode (model correction matrix)"
    },
    {
      "children": [
        3
      ],
      "matrix": [
        1,
        0,
        0,
        0,
        0,
        0,
        1,
        0,
        0,
        -1,
        0,
        0,
        0,
        0,
        0,
        1
      ],
      "name": "638576fab7334dc68d3cf7008156526a.fbx"
    },
    {
      "children": [
        4,
        7,
        9
      ],
      "name": "RootNode"
    },
    {
      "children": [
        5
      ],
      "matrix": [
        -29.08647719990347,
        -5.5189064575668629,
        -95.517119101714371,
        0,
        56.639309131094492,
        79.467234285632031,
        -21.839123978419661,
        0,
        77.110087759933748,
        -60.452463565620441,
        -19.988346967737169,
        0,
        -53.745674133300781,
        529.6162109375,
        134.99009704589844,
        1
      ],
      "name": "Light"
    },
    {
      "children": [
        6
      ],
      "matrix": [
        1,
        0,
        0,
        0,
        0,
        2.2204460492503131e-16,
        1,
        0,
        0,
        -1,
        2.2204460492503131e-16,
        0,
        0,
        0,
        0,
        1
      ],
      "name": ""
    },
    {
      "name": ""
    },
    {
      "children": [
        8
      ],
      "matrix": [
        -65.155832803290963,
        -44.527135765708579,
        -61.417030473735487,
        0,
        -32.40134137821245,
        89.539574512336159,
        -30.542088974418615,
        0,
        68.592054721299746,
        -1.0718647115348782e-05,
        -72.767633623962695,
        0,
        735.88916015625,
        495.8309326171875,
        692.5791015625,
        1
      ],
      "name": "Camera"
    },
    {
      "name": ""
    },
    {
      "children": [
        10,
        11
      ],
      "matrix": [
        92.173228471570567,
        35.282627635355318,
        16.100687571421126,
        0,
        38.78267594077878,
        -83.854819048858715,
        -38.265825081339862,
        0,
        1.3853591729340309e-05,
        41.515123863816441,
        -90.975241085538144,
        0,
        0,
        0,
        0,
        1
      ],
      "name": "Sphere"
    },
    {
      "mesh": 0,
      "name": "Sphere_Material.004_0"
    },
    {
      "children": [
        12,
        13
      ],
      "matrix": [
        0.99999988079071034,
        1.4901161325686637e-08,
        -7.2164496600635175e-16,
        0,
        -1.4901162213865159e-08,
        0.999999940395355,
        1.4901160416691542e-08,
        0,
        9.4368968704687535e-16,
        -1.4901161304869955e-08,
        0.99999999999999989,
        0,
        0.96282351016998291,
        -0.20549489557743073,
        -0.0029808133840560913,
        1
      ],
      "name": "Cylinder.002"
    },
    {
      "mesh": 1,
      "name": "Cylinder.002_Material.002_0"
    },
    {
      "mesh": 2,
      "name": "Cylinder.002_Material.002_0"
    }
  ],
  "samplers": [
    {
      "magFilter": 9729,
      "minFilter": 9987,
      "wrapS": 10497,
      "wrapT": 10497
    }
  ],
  "scene": 0,
  "scenes": [
    {
      "name": "OSG_Scene",
      "nodes": [
        0
      ]
    }
  ],
  "textures": [
    {
      "sampler": 0,
      "source": 0
    }
  ]
}

